<svg width="247" height="84" viewBox="0 0 247 84" fill="none" xmlns="http://www.w3.org/2000/svg">
<path d="M244.039 44.438C242.078 41.9405 239.357 40.2756 235.876 39.4431C238.557 38.7296 240.678 37.2629 242.278 35.043C243.839 32.823 244.639 30.2067 244.639 27.194C244.639 22.1595 242.719 18.0765 238.877 14.9052C235.036 11.7338 229.994 10.1482 223.792 10.1482C217.23 10.1482 212.029 12.0113 208.227 15.698C206.707 17.1647 205.506 18.8296 204.546 20.7324C200.905 18.5918 198.584 15.0241 197.624 10.1878H187.141V22.3577C183.899 21.5253 181.379 19.9792 179.538 17.68C178.058 15.8169 177.057 13.042 176.497 10.1878H169.055C168.494 13.0024 167.494 15.8169 166.014 17.68C164.173 19.9792 161.652 21.5649 158.411 22.3577V10.1482H147.928C146.927 15.2619 144.447 18.9486 140.445 21.0496C139.485 19.0279 138.205 17.244 136.644 15.698C132.843 12.0113 127.641 10.1482 121.079 10.1482C114.877 10.1482 109.835 11.7338 105.994 14.9052C102.153 18.0765 100.232 22.1595 100.232 27.194C100.232 27.3922 100.232 27.5904 100.232 27.7886C100.232 38.6107 109.235 43.4073 117.438 44.3983C118.518 44.5172 119.559 44.5965 120.559 44.5965C123.92 44.5965 126.641 45.3101 128.762 46.7768C130.882 48.2435 131.923 50.5824 131.923 53.833C131.923 56.6078 130.962 58.8674 129.042 60.6116C127.121 62.3558 124.6 63.2279 121.519 63.2279C118.118 63.2279 115.517 62.1973 113.677 60.1756C111.836 58.1539 110.916 55.1808 110.876 51.3355H98.6318V52.2077C98.6318 58.8278 100.713 64.1001 104.914 67.9849C109.075 71.8698 114.717 73.8518 121.839 73.8518C128.682 73.8518 134.283 71.9887 138.605 68.2228C142.246 65.0515 144.367 61.0873 144.927 56.4096V73.8915H158.451V30.9203H166.054V73.8518H179.578V30.9203H187.181V73.8518H200.705V55.1411C201.265 60.4134 203.266 64.6947 206.827 67.9849C210.988 71.8698 216.63 73.8518 223.752 73.8518C230.635 73.8518 236.196 71.9887 240.518 68.2228C244.839 64.4568 247 59.6206 247 53.714C247 50.0274 246 46.9354 244.039 44.438ZM123.72 39.2053H120.599H123.72ZM142.166 44.438C141.686 43.8037 141.126 43.2487 140.565 42.7334C136.724 38.8089 131.042 36.5097 125.641 36.034C124.92 35.9547 124.2 35.9151 123.48 35.9151C116.198 35.9151 112.556 33.2987 112.556 28.1057C112.556 25.7272 113.357 23.8641 114.917 22.437C116.518 21.0099 118.598 20.2964 121.239 20.2964C124.24 20.2964 126.521 21.2081 128.161 23.0316C129.802 24.8551 130.642 27.5111 130.722 30.9203H132.443H144.967V51.3752C144.607 48.7192 143.686 46.3804 142.166 44.438ZM230.995 60.572C229.074 62.3162 226.593 63.1883 223.472 63.1883C220.071 63.1883 217.47 62.1576 215.63 60.1359C213.789 58.1142 212.869 55.1411 212.829 51.2959H200.705V30.9203L202.185 30.8013C202.185 30.841 202.185 30.8806 202.185 30.9203H214.269C214.309 27.5111 215.19 24.8551 216.83 23.0316C218.471 21.2081 220.791 20.2964 223.752 20.2964C226.393 20.2964 228.474 21.0099 230.074 22.437C231.675 23.8641 232.435 25.7669 232.435 28.1057C232.435 33.2987 228.794 35.9151 221.512 35.9151C220.751 35.9151 220.031 35.8754 219.351 35.8358V44.7154C220.191 44.6758 221.232 44.6362 222.472 44.6362C225.833 44.6362 228.554 45.3497 230.675 46.8164C232.795 48.2832 233.836 50.622 233.836 53.8726C233.836 56.5682 232.875 58.8278 230.995 60.572Z" fill="black"/>
<path d="M42.3737 83.9604C65.7761 83.9604 84.7475 65.1652 84.7475 41.9802C84.7475 18.7952 65.7761 0 42.3737 0C18.9714 0 0 18.7952 0 41.9802C0 65.1652 18.9714 83.9604 42.3737 83.9604Z" fill="black"/>
</svg>
