<svg width="37" height="36" viewBox="0 0 37 36" fill="none" xmlns="http://www.w3.org/2000/svg">
<g clip-path="url(#clip0_2_211)">
<path d="M18.5 36C28.4411 36 36.5 27.9411 36.5 18C36.5 8.05887 28.4411 0 18.5 0C8.55887 0 0.5 8.05887 0.5 18C0.5 27.9411 8.55887 36 18.5 36Z" fill="url(#paint0_linear_2_211)"/>
<path fill-rule="evenodd" clip-rule="evenodd" d="M8.64753 17.8099C13.8949 15.5237 17.394 14.0165 19.1447 13.2883C24.1435 11.2092 25.1822 10.848 25.8592 10.8361C26.0081 10.8334 26.3411 10.8703 26.5567 11.0453C26.7388 11.1931 26.7889 11.3927 26.8129 11.5328C26.8369 11.6729 26.8668 11.992 26.843 12.2414C26.5721 15.0876 25.4 21.9947 24.8037 25.1825C24.5514 26.5314 24.0546 26.9836 23.5736 27.0279C22.5283 27.1241 21.7345 26.3371 20.7221 25.6734C19.1379 24.635 18.2429 23.9885 16.7051 22.9751C14.928 21.804 16.08 21.1603 17.0928 20.1084C17.3579 19.8331 21.9635 15.644 22.0526 15.2639C22.0637 15.2164 22.0741 15.0393 21.9688 14.9457C21.8636 14.8522 21.7083 14.8841 21.5962 14.9096C21.4373 14.9457 18.9064 16.6184 14.0037 19.9279C13.2853 20.4212 12.6346 20.6616 12.0516 20.649C11.4089 20.6351 10.1727 20.2856 9.2536 19.9869C8.12635 19.6204 7.23043 19.4267 7.30845 18.8044C7.34908 18.4803 7.79544 18.1488 8.64753 17.8099Z" fill="white"/>
</g>
<defs>
<linearGradient id="paint0_linear_2_211" x1="18.5" y1="0" x2="18.5" y2="35.733" gradientUnits="userSpaceOnUse">
<stop stop-color="#2AABEE"/>
<stop offset="1" stop-color="#229ED9"/>
</linearGradient>
<clipPath id="clip0_2_211">
<rect width="36" height="36" fill="white" transform="translate(0.5)"/>
</clipPath>
</defs>
</svg>
