<svg width="36" height="36" viewBox="0 0 36 36" fill="none" xmlns="http://www.w3.org/2000/svg">
<path d="M0 36L3.096 26.7126C1.52503 24.0703 0.62069 20.9868 0.62069 17.6897C0.62069 7.92 8.54069 0 18.3103 0C28.08 0 36 7.92 36 17.6897C36 27.4593 28.08 35.3793 18.3103 35.3793C15.3379 35.3793 12.5386 34.6426 10.08 33.3478L0 36Z" fill="#2CB742"/>
<path d="M29.5965 23.5769C28.7796 22.0332 25.7674 20.268 25.7674 20.268C25.0859 19.8794 24.2635 19.836 23.8749 20.5286C23.8749 20.5286 22.8961 21.7024 22.6472 21.8712C21.5101 22.6415 20.4568 22.6117 19.3936 21.5484L16.9226 19.0775L14.4516 16.6065C13.3884 15.5433 13.3586 14.49 14.1289 13.3529C14.2977 13.104 15.4714 12.1251 15.4714 12.1251C16.1641 11.736 16.1207 10.9142 15.7321 10.2326C15.7321 10.2326 13.9669 7.22044 12.4232 6.40361C11.7665 6.05603 10.9603 6.17768 10.4352 6.70279L9.34398 7.79396C5.88239 11.2555 7.58681 15.1634 11.0484 18.625L14.212 21.7886L17.3757 24.9523C20.8373 28.4139 24.7452 30.1183 28.2067 26.6567L29.2979 25.5655C29.823 25.0392 29.944 24.2329 29.5965 23.5769Z" fill="white"/>
</svg>
